<?xml version="1.0" encoding="UTF-8" standalone="no"?>
<svg
   xmlns:dc="http://purl.org/dc/elements/1.1/"
   xmlns:cc="http://creativecommons.org/ns#"
   xmlns:rdf="http://www.w3.org/1999/02/22-rdf-syntax-ns#"
   xmlns:svg="http://www.w3.org/2000/svg"
   xmlns="http://www.w3.org/2000/svg"
   xmlns:sodipodi="http://sodipodi.sourceforge.net/DTD/sodipodi-0.dtd"
   xmlns:inkscape="http://www.inkscape.org/namespaces/inkscape"
   version="1.1"
   id="svg4169"
   viewBox="0 0 53.946342 54.959677"
   height="54.959675"
   width="53.946342"
   inkscape:version="0.91 r13725"
   sodipodi:docname="yumjam-masonry-icon.svg">
  <title
     id="title5421">YumJam Require Login Icon</title>
  <sodipodi:namedview
     pagecolor="#ffffff"
     bordercolor="#666666"
     borderopacity="1"
     objecttolerance="10"
     gridtolerance="10"
     guidetolerance="10"
     inkscape:pageopacity="0"
     inkscape:pageshadow="2"
     inkscape:window-width="1312"
     inkscape:window-height="850"
     id="namedview4216"
     showgrid="false"
     showborder="false"
     fit-margin-top="0"
     fit-margin-left="0"
     fit-margin-right="0"
     fit-margin-bottom="0"
     inkscape:zoom="5.582456"
     inkscape:cx="5.2814745"
     inkscape:cy="19.354838"
     inkscape:window-x="330"
     inkscape:window-y="89"
     inkscape:window-maximized="1"
     inkscape:current-layer="svg4169" />
  <defs
     id="defs4171" />
  <metadata
     id="metadata4174">
    <rdf:RDF>
      <cc:Work
         rdf:about="">
        <dc:format>image/svg+xml</dc:format>
        <dc:type
           rdf:resource="http://purl.org/dc/dcmitype/StillImage" />
        <dc:title>YumJam Require Login Icon</dc:title>
      </cc:Work>
    </rdf:RDF>
  </metadata>
  <g
     id="g3686"
     style="fill:#9f0945;fill-opacity:1"
     transform="matrix(1.4715589,0,0,1.4715589,2.7489747,2.7014478)">
    <path
       d="m 8.673,4.791 15.654,0 c 0,0 1.508,-0.718 1.508,-2.09 0,-1.989 -1.855,-2.201 -2.842,-2.201 -0.985,0 -6.493,0 -6.493,0 0,0 -5.508,0 -6.493,0 -0.986,0 -2.842,0.212 -2.842,2.201 0,1.372 1.508,2.09 1.508,2.09 z"
       id="path3682"
       style="fill:#9f0945;fill-opacity:1"
       inkscape:connector-curvature="0" />
    <path
       d="m 24.998,5.864 -16.997,0 -1.504,2.407 c 2.5,0 2.5,1.856 5,1.856 2.5,0 2.5,-1.856 5,-1.856 2.502,0 2.502,1.856 5.004,1.856 2.502,0 2.502,-1.856 5.002,-1.856 L 24.998,5.864 Z"
       id="path3684"
       style="fill:#9f0945;fill-opacity:1"
       inkscape:connector-curvature="0" />
  </g>
  <path
     d="m 45.362378,40.798636 0,-7.084084 c 0,-7.17385 -0.286954,-10.362718 -3.072615,-13.894459 -0.741666,-0.94327 -1.345005,-1.911555 -1.843864,-2.86954 -2.194094,0.668087 -2.751815,2.538439 -5.858276,2.538439 -3.780434,0 -4.526515,-2.773889 -7.557926,-2.773889 -3.031412,0 -3.780435,2.773889 -7.56087,2.773889 -3.103518,0 -3.661239,-1.86888 -5.856805,-2.538439 -0.497386,0.956513 -1.100726,1.92627 -1.842391,2.86954 -2.7856612,3.531741 -3.0726152,6.720609 -3.0726152,13.894459 l 0,7.084084 c 0,2.199981 -0.6842749,9.728476 8.3628692,9.728476 l 9.969812,0 9.969811,0 c 9.045673,0 8.36287,-7.528495 8.36287,-9.728476 z"
     id="path3688"
     style="fill:#9c0945;fill-opacity:1"
     inkscape:connector-curvature="0"
     sodipodi:nodetypes="ssccsssccssscss" />
  <g
     inkscape:groupmode="layer"
     id="layer2"
     inkscape:label="square"
     style="display:inline"
     transform="translate(14.686582,11.033089)" />
  <g
     transform="matrix(0.03299643,0,0,0.03193812,10.371423,19.09462)"
     id="g4152"
     style="fill:#ffffff">
    <g
       id="g4154"
       style="fill:#ffffff">
      <path
         inkscape:connector-curvature="0"
         d="m 967.2,104.2 -467.2,0 -467.2,0 C 20.2,104.2 10,114.4 10,127 l 0,263.7 0,218.5 0,263.8 c 0,12.6 10.2,22.8 22.8,22.8 l 467.2,0 467.2,0 c 12.6,0 22.8,-10.2 22.8,-22.8 l 0,-263.8 0,-218.5 0,-263.7 c 0,-12.6 -10.2,-22.8 -22.8,-22.8 z M 500,586.4 l -210.8,0 0,-172.8 210.8,0 210.7,0 0,172.8 -210.7,0 z m -444.3,0 0,-172.8 187.9,0 0,172.8 -187.9,0 z m 700.7,-172.8 187.9,0 0,172.8 -187.9,0 0,-172.8 z m 187.9,-45.7 -210.7,0 -210.8,0 0,-218.1 421.5,0 0,218.1 0,0 z M 55.7,149.8 l 421.5,0 0,218.1 -210.8,0 -210.7,0 0,-218.1 z m 0,482.3 210.7,0 210.7,0 0,218.1 -421.4,0 0,-218.1 z m 888.6,218 -421.5,0 0,-218 210.7,0 210.8,0 0,218 0,0 0,0 z"
         id="path4156"
         style="fill:#ffffff" />
    </g>
    <g
       id="g4158"
       style="fill:#ffffff" />
    <g
       id="g4160"
       style="fill:#ffffff" />
    <g
       id="g4162"
       style="fill:#ffffff" />
    <g
       id="g4164"
       style="fill:#ffffff" />
    <g
       id="g4166"
       style="fill:#ffffff" />
    <g
       id="g4168"
       style="fill:#ffffff" />
    <g
       id="g4170"
       style="fill:#ffffff" />
    <g
       id="g4172"
       style="fill:#ffffff" />
    <g
       id="g4174"
       style="fill:#ffffff" />
    <g
       id="g4176"
       style="fill:#ffffff" />
    <g
       id="g4178"
       style="fill:#ffffff" />
    <g
       id="g4180"
       style="fill:#ffffff" />
    <g
       id="g4182"
       style="fill:#ffffff" />
    <g
       id="g4184"
       style="fill:#ffffff" />
    <g
       id="g4186"
       style="fill:#ffffff" />
  </g>
</svg>
